# xmcd
#
# Track frame offsets: 
#        150
#        21605
#        33760
#        46886
#        70914
#        86763
#        102417
#        123030
#        139666
#        170519
#        187032
#        204673
#        228506
#        247250
#        275011
#        309074
#        313223
#
# Disc length: 4576 seconds
#
# Revision: 0
# Processed by: cddbd v1.5.2PL0 Copyright (c) Steve Scherf et al.
# Submitted via: ExactAudioCopy v1.3
#
DISCID=f611de11
DTITLE=Roberta Flack - The Very Best Of Roberta Flack
DYEAR=2006
DGENRE=
TTITLE0=Killing Me Softly With His Song
TTITLE1=Roberta Flack and Donny Hathaway - Where Is The Love
TTITLE2=Feel Like Makin' Love
TTITLE3=The First Time Ever I Saw Your Face
TTITLE4=And So It Goes
TTITLE5=Peabo Bryson and Roberta Flack - Tonight, I Celebrate My Love
TTITLE6=Roberta Flack With Donny Hathaway - The Closer I Get To You
TTITLE7='Til The Morning Comes
TTITLE8=Roberta Flack With Donny Hathaway - Back Together Again
TTITLE9=Making Love
TTITLE10=Only Heaven Can Wait (For Love)
TTITLE11=Roberta Flack and Maxi Priest - Set The Night To Music
TTITLE12=Roberta Flack With Donny Hathaway - You Are My Heaven
TTITLE13=Oasis
TTITLE14=Don't Make Me Wait Too Long
TTITLE15=And So It Goes (Reprise)
TTITLE16=Trade Winds
EXTD=
EXTT0=
EXTT1=
EXTT2=
EXTT3=
EXTT4=
EXTT5=
EXTT6=
EXTT7=
EXTT8=
EXTT9=
EXTT10=
EXTT11=
EXTT12=
EXTT13=
EXTT14=
EXTT15=
EXTT16=
PLAYORDER=
